<svg viewBox="0 0 16 16" xmlns="http://www.w3.org/2000/svg"><path d="m2.7843055 2.08859116.06924789.05785545 11.00000001 10.99999999c.1952621.1952622.1952621.5118446 0 .7071068-.1735664.1735663-.4429908.1928515-.6378589.0578554l-.0692479-.0578554-2.0159406-2.0155443c-.2867897.0843405-.586966.1374104-.8965839.1552647l-.2339221.0067262-3.293-.0007002 1.1482536 1.148847c.17356635.1735664.1928515.4429908.05785545.6378589l-.05785545.0692479c-.17356635.1735664-.44299075.1928515-.63785889.0578555l-.06924789-.0578555-2.00170021-2.0017002c-.17356635-.1735664-.1928515-.4429908-.05785545-.6378589l.05785545-.0692479 2.00170021-2.0017002c.19526215-.19526215.51184463-.19526215.70710678 0 .17356635.17356635.1928515.44299075.05785545.63785889l-.05785545.06924789-1.1482536 1.14744662 3.293.0007002c.0940617 0 .1871123-.0043289.2789635-.0127984l-5.65281976-5.65483813c-.9658076.49840597-1.62614374 1.50590636-1.62614374 2.66763653 0 .81955112.32862956 1.56234669.861301 2.103799.08614685.088375.138699.2098966.138699.3436923 0 .2761424-.22385763.5-.5.5-.13755981 0-.26214508-.0555506-.35254661-.1454426-.70955078-.7195305-1.14745339-1.70965077-1.14745339-2.8020487 0-1.43594035.75663877-2.69515824 1.89297071-3.40070808l-1.7465241-1.74573853c-.19526215-.19526215-.19526215-.51184463 0-.70710678.17356635-.17356635.44299075-.1928515.63785889-.05785545zm9.7156945 2.96030804c.1227299 0 .235132.04421879.3221436.11759374l.0713233.07164112c.685541.71799852 1.1065331 1.69076824 1.1065331 2.76186594 0 1.07769063-.4261907 2.0558391-1.1192223 2.7750954l-.7068079-.7077563c.5118699-.53810317.8260302-1.2660331.8260302-2.0673391 0-.82196281-.3305665-1.56671767-.8660088-2.10857379-.0818334-.08812357-.1339912-.20923424-.1339912-.34252701 0-.27614237.2238576-.5.5-.5zm-4.35355339-2.9041528c.17356635-.17356635.44299075-.1928515.63785889-.05785545l.06924789.05785545 2.00170021 2.00170021.0578555.06924789c.1181215.17050962.1181215.39810138 0 .568611l-.0578555.06924789-1.9482536 1.9467464-.707-.707 1.094-1.094h-2.189l-1-1h3.189l-1.14755339-1.14744661-.05785545-.06924789c-.13499605-.19486814-.1157109-.46429254.05785545-.63785889z" fill="#000"/></svg>