<svg viewBox="0 0 16 16" xmlns="http://www.w3.org/2000/svg"><path d="m12.8934669 5.23813406c.685541.71799852 1.1065331 1.69076824 1.1065331 2.76186594 0 2.1421954-1.6839685 3.8910789-3.8003597 3.9951047l-.1996403.0048953-3.293-.0007002 1.1482536 1.148847c.17356635.1735664.1928515.4429908.05785545.6378589l-.05785545.0692479c-.17356635.1735664-.44299075.1928515-.63785889.0578555l-.06924789-.0578555-2.00170021-2.0017002c-.17356635-.1735664-.1928515-.4429908-.05785545-.6378589l.05785545-.0692479 2.00170021-2.0017002c.19526215-.19526215.51184463-.19526215.70710678 0 .17356635.17356635.1928515.44299075.05785545.63785889l-.05785545.06924789-1.1482536 1.14744662 3.293.0007002c1.5976809 0 2.9036609-1.24891996 2.9949073-2.82372721l.0050927-.17627279c0-.82196281-.3305665-1.56671767-.8660088-2.10857379-.0818334-.08812357-.1339912-.20923424-.1339912-.34252701 0-.27614237.2238576-.5.5-.5.1227299 0 .235132.04421879.3221436.11759374zm-4.1091614-3.15124311.06924789.05785545 2.00170021 2.00170021.0578555.06924789c.1181215.17050962.1181215.39810138 0 .568611l-.0578555.06924789-2.00170021 2.00170021-.06924789.05785545c-.17050962.11812155-.39810138.11812155-.568611 0l-.06924789-.05785545-.05785545-.06924789c-.11812155-.17050962-.11812155-.39810138 0-.568611l.05785545-.06924789 1.14755339-1.14884703-3.294.00070021c-1.59768088 0-2.90366088 1.24891996-2.99490731 2.82372721l-.00509269.17627279c0 .81955112.32862956 1.56234669.861301 2.103799.08614685.088375.138699.2098966.138699.3436923 0 .2761424-.22385763.5-.5.5-.13755981 0-.26214508-.0555506-.35254661-.1454426-.70955078-.7195305-1.14745339-1.70965077-1.14745339-2.8020487 0-2.14219539 1.68396847-3.89107888 3.80035966-3.99510469l.19964034-.00489531 3.294-.00070021-1.14755339-1.14744661-.05785545-.06924789c-.13499605-.19486814-.1157109-.46429254.05785545-.63785889s.44299075-.1928515.63785889-.05785545z" fill="#212121"/></svg>