<svg height="16" viewBox="0 0 16 16" width="16" xmlns="http://www.w3.org/2000/svg"><path d="m11.243 12.993c-.192 0-.384-.073-.53-.22-.293-.293-.293-.768 0-1.061 2.047-2.047 2.047-5.378 0-7.425-.293-.293-.293-.768 0-1.061s.768-.293 1.061 0c1.275 1.275 1.977 2.97 1.977 4.773s-.702 3.498-1.977 4.773c-.146.146-.338.22-.53.22zm-2.665-1.415c-.192 0-.384-.073-.53-.22-.293-.293-.293-.768 0-1.061 1.267-1.267 1.267-3.329 0-4.596-.293-.293-.293-.768 0-1.061s.768-.293 1.061 0c1.852 1.852 1.852 4.865 0 6.718-.146.146-.338.22-.53.22z"/><path d="m6.5 15c-.13 0-.258-.051-.354-.146l-3.854-3.854h-1.793c-.276 0-.5-.224-.5-.5v-5c0-.276.224-.5.5-.5h1.793l3.854-3.854c.143-.143.358-.186.545-.108s.309.26.309.462v13c0 .202-.122.385-.309.462-.062.026-.127.038-.191.038z"/></svg>