<?xml version="1.0" encoding="UTF-8"?>
<svg version="1.1" xmlns="http://www.w3.org/2000/svg" width="100" height="100">
<path d="M0 0 C1.43653931 -0.00361794 1.43653931 -0.00361794 2.90209961 -0.00730896 C4.92273101 -0.00633141 6.94338949 0.00704024 8.96386719 0.03198242 C12.05236009 0.0662936 15.13799116 0.05263584 18.2265625 0.03320312 C20.19272048 0.04010182 22.1588711 0.04977441 24.125 0.0625 C25.04595459 0.05754013 25.96690918 0.05258026 26.91577148 0.04747009 C31.14753584 0.12499886 33.46237187 0.25406569 37.12109375 2.53930664 C40.20700944 5.86077952 40.19451563 7.81929418 40.22363281 12.26855469 C40.23324036 13.45028259 40.2428479 14.6320105 40.25274658 15.84954834 C40.25699646 17.1328302 40.26124634 18.41611206 40.265625 19.73828125 C40.27132507 21.05298401 40.27702515 22.36768677 40.28289795 23.722229 C40.29340946 26.50981025 40.29925053 29.29736266 40.30273438 32.08496094 C40.30820699 35.64702778 40.33220737 39.20871003 40.36070633 42.77065659 C40.38388357 46.17652384 40.38578635 49.58233924 40.390625 52.98828125 C40.4029718 54.26346619 40.4153186 55.53865112 40.42803955 56.85247803 C40.42503845 58.04681458 40.42203735 59.24115112 40.41894531 60.47167969 C40.42441376 62.0414859 40.42441376 62.0414859 40.42999268 63.64300537 C39.88752735 68.05056996 38.36593074 71.44767215 35.0625 74.44140625 C31.04782359 76.82512037 27.65370475 77.0179914 23.0625 76.62890625 C18.72520205 74.3768477 15.92852629 72.19030385 14.0625 67.62890625 C13.48562632 63.68693608 13.67428183 60.577884 15.1875 56.87890625 C17.5813078 54.00633689 19.73603452 52.35610948 23.0625 50.62890625 C25.3725 50.62890625 27.6825 50.62890625 30.0625 50.62890625 C30.0625 43.03890625 30.0625 35.44890625 30.0625 27.62890625 C25.23862933 27.60599605 20.41494611 27.58606939 15.59106445 27.57397461 C13.94880536 27.56893451 12.30655077 27.56210247 10.66430664 27.5534668 C8.30874521 27.54138699 5.95324291 27.53567486 3.59765625 27.53125 C2.85910904 27.52608871 2.12056183 27.52092743 1.3596344 27.51560974 C-0.40648088 27.51541375 -2.17247146 27.56695906 -3.9375 27.62890625 C-6.01204293 29.70344918 -5.09889468 34.18255631 -5.11328125 37.046875 C-5.13649132 38.79363169 -5.16060912 40.5403765 -5.18554688 42.28710938 C-5.22059016 45.0476867 -5.24995816 47.80783141 -5.26342773 50.56860352 C-5.27895513 53.228566 -5.31920879 55.8872519 -5.36328125 58.546875 C-5.36137283 59.36584763 -5.35946442 60.18482025 -5.35749817 61.02861023 C-5.47048029 66.35284524 -6.43635459 69.3878134 -9.9375 73.62890625 C-13.3996961 76.51406967 -16.42546884 77.1680849 -20.9453125 76.98046875 C-25.32204766 76.20810372 -28.0514496 73.69216673 -30.8125 70.37890625 C-32.30501074 66.73054667 -32.61646674 63.47638444 -31.9375 59.62890625 C-29.71613437 55.26844778 -27.50182971 52.49613204 -22.9375 50.62890625 C-20.91894531 50.51904297 -20.91894531 50.51904297 -18.765625 50.55859375 C-17.50234375 50.58179688 -16.2390625 50.605 -14.9375 50.62890625 C-14.94860306 50.07624588 -14.95970612 49.52358551 -14.97114563 48.95417786 C-15.08187269 43.1954466 -15.15722184 37.43701829 -15.2121582 31.67749023 C-15.23728285 29.52892776 -15.27138861 27.3804506 -15.31469727 25.23217773 C-15.37543792 22.14155013 -15.40373044 19.05205362 -15.42578125 15.9609375 C-15.45158768 15.00242386 -15.4773941 14.04391022 -15.50398254 13.05635071 C-15.50580233 8.71687936 -15.33664481 6.27827571 -13.02807617 2.52246094 C-8.64955799 -0.1601986 -5.04649854 -0.0726502 0 0 Z " fill="#fff" transform="translate(43.9375,11.37109375)"/>
</svg>
